<?xml version="1.0" encoding="UTF-8"?>
<svg xmlns="http://www.w3.org/2000/svg" xmlns:xlink="http://www.w3.org/1999/xlink" width="309px" height="104px" viewBox="0 0 308 104" version="1.1">
<defs>
<clipPath id="clip1">
  <path d="M 1.199219 30.996094 L 190.863281 30.996094 L 190.863281 56.230469 L 1.199219 56.230469 Z M 1.199219 30.996094 "/>
</clipPath>
<clipPath id="clip2">
  <path d="M 79.511719 62.1875 L 190.863281 62.1875 L 190.863281 73.308594 L 79.511719 73.308594 Z M 79.511719 62.1875 "/>
</clipPath>
<clipPath id="clip3">
  <path d="M 202.710938 0.152344 L 306.429688 0.152344 L 306.429688 104 L 202.710938 104 Z M 202.710938 0.152344 "/>
</clipPath>
<clipPath id="clip4">
  <path d="M 223.394531 35.703125 L 285.746094 35.703125 L 285.746094 68.613281 L 223.394531 68.613281 Z M 223.394531 35.703125 "/>
</clipPath>
</defs>
<g id="surface1">
<g clip-path="url(#clip1)" clip-rule="nonzero">
<path style=" stroke:none;fill-rule:nonzero;fill:rgb(27.843137%,10.196078%,62.745098%);fill-opacity:1;" d="M 16.949219 42.671875 L 16.832031 43.441406 C 16.785156 43.644531 16.730469 43.925781 16.679688 44.289062 L 1.625 42.671875 Z M 1.203125 46.367188 L 16.410156 46.367188 C 16.335938 46.960938 16.296875 47.5 16.296875 47.984375 Z M 2.542969 38.972656 L 17.867188 38.972656 L 17.410156 40.550781 Z M 1.699219 50.070312 L 16.335938 50.070312 C 16.4375 50.785156 16.527344 51.324219 16.601562 51.6875 Z M 4.34375 35.269531 L 19.4375 35.269531 C 19.082031 35.9375 18.824219 36.453125 18.671875 36.816406 Z M 5.378906 53.804688 L 17.484375 53.804688 C 17.816406 54.398438 18.199219 54.871094 18.632812 55.230469 Z M 9.632812 31.574219 L 23.074219 31.574219 C 22.339844 32.039062 21.765625 32.460938 21.355469 32.847656 Z M 26.449219 56.230469 C 23.230469 56.230469 20.925781 55.605469 19.539062 54.34375 C 18.144531 53.085938 17.445312 51.148438 17.445312 48.523438 C 17.445312 47.421875 17.625 45.789062 17.984375 43.632812 C 18.75 39.21875 20.070312 36.003906 21.953125 34 C 23.824219 31.996094 26.792969 30.996094 30.855469 30.996094 C 31.796875 30.996094 32.882812 31.09375 34.097656 31.28125 C 35.308594 31.476562 36.195312 31.714844 36.753906 31.996094 L 34.609375 37.894531 C 33.101562 37.53125 31.691406 37.355469 30.378906 37.355469 C 29.0625 37.355469 28.121094 37.484375 27.558594 37.738281 C 27 37.996094 26.652344 38.507812 26.523438 39.28125 L 24.765625 49.375 C 25.683594 49.578125 26.628906 49.683594 27.601562 49.683594 C 29.664062 49.683594 31.558594 49.375 33.265625 48.757812 L 32.65625 55.230469 C 31.019531 55.898438 28.953125 56.230469 26.449219 56.230469 Z M 44.914062 53.804688 L 44.609375 55.539062 L 28.367188 53.804688 Z M 45.566406 50.070312 L 45.257812 51.804688 L 29.015625 50.070312 Z M 43.378906 38.972656 L 43.726562 40.707031 L 27.484375 38.972656 Z M 42.613281 35.269531 L 42.960938 37.003906 L 26.71875 35.269531 Z M 44.148438 42.671875 L 44.492188 44.40625 L 28.25 42.671875 Z M 44.875 46.367188 L 45.257812 48.101562 L 29.015625 46.367188 Z M 43.765625 35.269531 L 50.355469 35.269531 L 51.195312 42.671875 L 51.425781 42.671875 L 54.605469 35.269531 L 61.3125 35.269531 L 53.1875 49.835938 L 52.230469 55.652344 L 45.753906 55.652344 L 46.753906 49.835938 Z M 71.308594 35.269531 L 81.652344 35.269531 C 84.5625 35.269531 86.019531 36.480469 86.019531 38.894531 C 86.019531 40.230469 85.703125 41.4375 85.078125 42.515625 C 84.453125 43.59375 83.695312 44.339844 82.800781 44.75 L 82.761719 44.980469 C 84.449219 45.519531 85.289062 46.691406 85.289062 48.488281 C 85.289062 50.75 84.683594 52.507812 83.46875 53.765625 C 82.257812 55.023438 80.425781 55.652344 77.972656 55.652344 L 67.785156 55.652344 Z M 77.972656 47.757812 L 75.601562 47.757812 L 75.097656 50.609375 L 77.476562 50.609375 C 78.367188 50.609375 78.816406 49.953125 78.816406 48.640625 C 78.816406 48.050781 78.535156 47.757812 77.972656 47.757812 Z M 78.96875 40.167969 L 76.898438 40.167969 L 76.480469 42.632812 L 78.589844 42.632812 C 79.355469 42.632812 79.734375 42.066406 79.734375 40.933594 C 79.734375 40.425781 79.476562 40.167969 78.96875 40.167969 Z M 66.867188 53.804688 L 66.558594 55.539062 L 50.316406 53.804688 Z M 68.164062 46.367188 L 67.859375 48.101562 L 51.617188 46.367188 Z M 68.820312 42.671875 L 68.511719 44.40625 L 52.269531 42.671875 Z M 69.46875 38.972656 L 69.164062 40.707031 L 52.921875 38.972656 Z M 70.082031 35.269531 L 69.8125 37.003906 L 53.570312 35.269531 Z M 67.515625 50.070312 L 67.210938 51.804688 L 50.964844 50.070312 Z M 109.378906 43.675781 L 108.726562 47.371094 L 103.019531 47.371094 L 102.558594 49.988281 L 109.648438 49.988281 L 108.648438 55.652344 L 95.128906 55.652344 L 98.652344 35.269531 L 112.136719 35.269531 L 110.335938 41.050781 L 104.089844 41.050781 L 103.632812 43.675781 Z M 94.167969 53.804688 L 93.863281 55.539062 L 77.621094 53.804688 Z M 95.472656 46.367188 L 95.167969 48.101562 L 78.925781 46.367188 Z M 96.125 42.671875 L 95.816406 44.40625 L 79.574219 42.671875 Z M 96.773438 38.972656 L 96.46875 40.707031 L 80.222656 38.972656 Z M 97.390625 35.269531 L 97.121094 37.003906 L 80.878906 35.269531 Z M 94.824219 50.070312 L 94.511719 51.804688 L 78.269531 50.070312 Z M 119.339844 55.539062 L 103.324219 53.804688 L 119.875 53.804688 Z M 106.277344 38.972656 L 122.785156 38.972656 C 122.632812 39.382812 122.464844 39.960938 122.289062 40.707031 Z M 121.828125 44.097656 L 121.828125 44.40625 L 105.585938 42.671875 L 121.90625 42.671875 C 121.851562 43.289062 121.828125 43.761719 121.828125 44.097656 Z M 121.101562 50.070312 L 120.566406 51.761719 L 104.589844 50.070312 Z M 108.917969 35.269531 L 125.429688 35.269531 C 124.738281 35.785156 124.21875 36.324219 123.859375 36.890625 Z M 107.082031 46.367188 L 122.171875 46.367188 C 122.402344 47.035156 122.773438 47.617188 123.285156 48.101562 Z M 139.296875 35.699219 L 137.457031 41.320312 C 135.71875 40.910156 134.242188 40.707031 133.011719 40.707031 C 131.789062 40.707031 130.882812 40.746094 130.292969 40.820312 L 130.101562 41.941406 L 132.019531 42.167969 C 136.128906 42.707031 138.1875 44.417969 138.1875 47.292969 C 138.1875 47.628906 138.109375 48.246094 137.957031 49.160156 C 137.800781 50.074219 137.550781 50.953125 137.191406 51.804688 C 136.832031 52.648438 136.382812 53.335938 135.832031 53.859375 C 135.285156 54.390625 134.746094 54.8125 134.226562 55.128906 C 133.699219 55.457031 133.03125 55.679688 132.210938 55.808594 C 130.933594 56.015625 129.230469 56.113281 127.097656 56.113281 C 124.964844 56.113281 122.8125 55.820312 120.640625 55.230469 L 122.519531 49.527344 C 124.511719 50.09375 126.257812 50.375 127.75 50.375 C 129.242188 50.375 130.292969 50.339844 130.90625 50.257812 L 131.101562 49.027344 L 128.6875 48.757812 C 126.617188 48.523438 125.148438 48.039062 124.277344 47.292969 C 123.414062 46.550781 122.980469 45.484375 122.980469 44.097656 C 122.980469 43.582031 123.042969 42.941406 123.167969 42.167969 C 123.679688 39.421875 124.601562 37.519531 125.925781 36.464844 C 127.253906 35.417969 129.28125 34.890625 132.003906 34.890625 C 134.722656 34.890625 137.152344 35.160156 139.296875 35.699219 Z M 161.210938 49.449219 L 160.597656 55.230469 C 159.21875 55.820312 157.300781 56.113281 154.851562 56.113281 C 152.398438 56.113281 150.589844 55.597656 149.425781 54.550781 C 148.265625 53.511719 147.6875 51.878906 147.6875 49.644531 C 147.6875 48.640625 147.839844 47.253906 148.144531 45.484375 C 148.785156 41.757812 149.890625 39.058594 151.457031 37.390625 C 153.03125 35.722656 155.539062 34.890625 158.988281 34.890625 C 161.464844 34.890625 163.164062 35.171875 164.082031 35.734375 L 162.128906 41.089844 C 160.855469 40.730469 159.691406 40.550781 158.644531 40.550781 C 157.597656 40.550781 156.859375 40.640625 156.4375 40.820312 C 156.015625 41 155.757812 41.347656 155.65625 41.859375 L 154.160156 50.105469 C 154.699219 50.234375 155.621094 50.296875 156.9375 50.296875 C 158.25 50.296875 159.679688 50.015625 161.210938 49.449219 Z M 131.523438 46.367188 L 146.804688 46.367188 C 146.703125 47.164062 146.640625 47.703125 146.613281 47.984375 Z M 132.210938 42.671875 L 147.535156 42.671875 L 147.191406 44.289062 Z M 131.675781 50.070312 L 146.578125 50.070312 C 146.578125 50.480469 146.628906 51.019531 146.730469 51.6875 Z M 133.742188 38.972656 L 148.875 38.972656 C 148.570312 39.640625 148.347656 40.15625 148.226562 40.511719 Z M 135.007812 53.804688 L 147.378906 53.804688 C 147.6875 54.421875 148.019531 54.894531 148.378906 55.230469 Z M 138.875 35.269531 L 152.207031 35.269531 C 151.59375 35.632812 151.074219 36.054688 150.636719 36.546875 Z M 183.199219 34.890625 C 185.953125 34.890625 187.925781 35.421875 189.097656 36.480469 C 190.273438 37.550781 190.859375 39.21875 190.859375 41.476562 C 190.859375 42.578125 190.71875 43.914062 190.4375 45.484375 C 189.800781 49.179688 188.679688 51.878906 187.066406 53.574219 C 185.457031 55.269531 182.929688 56.113281 179.480469 56.113281 C 176.773438 56.113281 174.847656 55.582031 173.699219 54.515625 C 172.546875 53.453125 171.976562 51.804688 171.976562 49.566406 C 171.976562 48.414062 172.113281 47.046875 172.394531 45.484375 C 173.035156 41.785156 174.144531 39.09375 175.726562 37.40625 C 177.3125 35.726562 179.804688 34.890625 183.199219 34.890625 Z M 178.335938 50.257812 L 180.59375 50.257812 C 181.335938 50.257812 181.886719 50.167969 182.257812 49.988281 C 182.628906 49.8125 182.878906 49.414062 183.007812 48.792969 L 184.464844 40.746094 L 182.125 40.746094 C 181.410156 40.746094 180.855469 40.835938 180.457031 41.015625 C 180.0625 41.191406 179.828125 41.578125 179.75 42.167969 Z M 155.769531 46.367188 L 171.054688 46.367188 C 170.953125 47.164062 170.886719 47.703125 170.863281 47.984375 Z M 156.457031 42.671875 L 171.78125 42.671875 L 171.4375 44.289062 Z M 155.925781 50.070312 L 170.824219 50.070312 C 170.824219 50.480469 170.875 51.019531 170.980469 51.6875 Z M 157.992188 38.972656 L 173.121094 38.972656 C 172.816406 39.640625 172.601562 40.15625 172.472656 40.511719 Z M 159.257812 53.804688 L 171.628906 53.804688 C 171.933594 54.421875 172.265625 54.894531 172.625 55.230469 Z M 163.125 35.269531 L 176.457031 35.269531 C 175.84375 35.632812 175.320312 36.054688 174.886719 36.546875 Z M 163.125 35.269531 "/>
</g>
<g clip-path="url(#clip2)" clip-rule="nonzero">
<path style=" stroke:none;fill-rule:nonzero;fill:rgb(27.843137%,10.196078%,62.745098%);fill-opacity:1;" d="M 87.78125 63.558594 L 87.796875 64.0625 C 87.796875 64.765625 87.742188 65.410156 87.640625 65.996094 L 86.863281 65.996094 L 86.675781 64.554688 L 84.324219 64.46875 L 84.324219 72.160156 L 85.960938 72.34375 L 85.941406 73.023438 L 81.511719 73.023438 L 81.425781 72.5625 L 82.992188 72.070312 L 82.992188 64.46875 L 80.636719 64.554688 L 80.449219 65.996094 L 79.675781 65.996094 C 79.570312 65.410156 79.519531 64.765625 79.519531 64.0625 L 79.53125 63.558594 C 80.71875 63.601562 82.097656 63.617188 83.664062 63.617188 C 85.253906 63.617188 86.625 63.601562 87.78125 63.558594 Z M 94.765625 68.597656 L 94.765625 72.097656 C 95.246094 72.160156 95.589844 72.234375 95.800781 72.332031 L 95.710938 73.023438 L 92.746094 73.023438 L 92.671875 72.550781 L 93.492188 72.230469 L 93.492188 68.753906 C 93.492188 67.714844 93.1875 67.195312 92.574219 67.195312 C 92.039062 67.195312 91.308594 67.542969 90.390625 68.234375 L 90.390625 72.117188 C 90.792969 72.164062 91.105469 72.234375 91.324219 72.332031 L 91.238281 73.023438 L 88.125 73.023438 L 88.050781 72.550781 L 89.117188 72.160156 L 89.117188 63.460938 L 88.039062 63.542969 L 87.867188 62.867188 C 88.511719 62.585938 89.160156 62.4375 89.816406 62.421875 L 90.390625 62.925781 L 90.390625 67.453125 C 91.796875 66.511719 92.753906 66.042969 93.261719 66.042969 C 93.539062 66.089844 93.820312 66.230469 94.101562 66.464844 C 94.382812 66.703125 94.566406 66.945312 94.644531 67.195312 C 94.726562 67.445312 94.765625 67.914062 94.765625 68.597656 Z M 101.195312 69.316406 L 97.507812 69.242188 C 97.507812 70.195312 97.726562 70.917969 98.160156 71.40625 C 98.597656 71.898438 99.160156 72.144531 99.859375 72.144531 C 100.375 72.144531 100.984375 71.988281 101.695312 71.667969 L 101.914062 72.289062 L 99.675781 73.242188 C 98.621094 73.242188 97.773438 72.914062 97.125 72.265625 C 96.484375 71.617188 96.15625 70.785156 96.15625 69.761719 C 96.15625 68.726562 96.480469 67.835938 97.113281 67.09375 C 97.75 66.355469 98.527344 65.984375 99.445312 65.984375 C 99.945312 65.984375 100.390625 66.09375 100.785156 66.316406 C 101.183594 66.535156 101.488281 66.839844 101.703125 67.222656 C 101.917969 67.609375 102.019531 68.035156 102.011719 68.507812 Z M 98.726562 66.863281 C 98.179688 67.152344 97.808594 67.691406 97.621094 68.480469 L 100.765625 68.335938 C 100.667969 67.871094 100.433594 67.5 100.050781 67.222656 C 99.675781 66.945312 99.234375 66.824219 98.726562 66.863281 Z M 111.320312 62.894531 L 110.515625 64.050781 C 110.03125 63.582031 109.511719 63.34375 108.96875 63.34375 C 108.765625 63.34375 108.5625 63.382812 108.347656 63.460938 L 108.679688 66.269531 L 110.1875 66.269531 L 110.230469 66.675781 L 109.554688 67.382812 L 108.609375 67.382812 L 108.609375 72.070312 C 109.210938 72.132812 109.644531 72.214844 109.914062 72.332031 L 109.828125 73.023438 L 106.429688 73.023438 L 106.355469 72.550781 L 107.332031 72.1875 L 107.332031 67.351562 L 106.441406 67.382812 L 106.355469 66.675781 C 106.605469 66.5625 106.929688 66.457031 107.332031 66.359375 L 107.332031 64.902344 C 107.332031 64.109375 107.558594 63.464844 108.019531 62.953125 C 108.476562 62.445312 109.039062 62.1875 109.695312 62.1875 C 110.332031 62.1875 110.871094 62.425781 111.320312 62.894531 Z M 118.609375 71.941406 L 118.820312 72.578125 L 117.371094 73.242188 C 117.21875 73.222656 117.03125 73.101562 116.808594 72.878906 C 116.582031 72.660156 116.425781 72.425781 116.34375 72.171875 C 115.859375 72.480469 115.355469 72.734375 114.816406 72.9375 C 114.285156 73.140625 113.867188 73.242188 113.570312 73.242188 C 113.046875 73.125 112.625 72.8125 112.308594 72.304688 C 112.15625 72.082031 112.074219 71.644531 112.066406 70.988281 L 112.066406 67.078125 L 110.988281 67.167969 L 110.816406 66.488281 C 111.457031 66.210938 112.105469 66.0625 112.769531 66.042969 L 113.34375 66.542969 L 113.34375 70.886719 C 113.371094 71.71875 113.6875 72.132812 114.289062 72.132812 C 114.8125 72.132812 115.484375 71.878906 116.296875 71.378906 L 116.296875 67.078125 L 115.222656 67.167969 L 115.050781 66.488281 C 115.6875 66.210938 116.34375 66.0625 117 66.042969 L 117.574219 66.542969 L 117.574219 71.78125 C 117.574219 71.976562 117.699219 72.070312 117.945312 72.070312 C 118.089844 72.070312 118.3125 72.027344 118.609375 71.941406 Z M 121.992188 72.042969 C 122.269531 72.042969 122.710938 71.933594 123.3125 71.714844 L 123.558594 72.375 L 121.691406 73.242188 C 121.367188 73.261719 121.042969 73.136719 120.722656 72.871094 C 120.402344 72.605469 120.246094 72.320312 120.246094 72.015625 L 120.246094 67.351562 L 119.355469 67.367188 L 119.253906 66.675781 C 119.558594 66.539062 119.898438 66.433594 120.273438 66.34375 L 120.847656 64.523438 L 121.519531 64.523438 L 121.519531 66.269531 L 123.527344 66.269531 L 123.585938 66.6875 L 122.910156 67.382812 L 121.519531 67.382812 L 121.519531 71.261719 C 121.519531 71.558594 121.550781 71.765625 121.621094 71.875 C 121.6875 71.988281 121.8125 72.042969 121.992188 72.042969 Z M 131.675781 71.941406 L 131.890625 72.578125 L 130.4375 73.242188 C 130.285156 73.222656 130.097656 73.101562 129.875 72.878906 C 129.648438 72.660156 129.492188 72.425781 129.40625 72.171875 C 128.925781 72.480469 128.421875 72.734375 127.886719 72.9375 C 127.351562 73.140625 126.933594 73.242188 126.636719 73.242188 C 126.113281 73.125 125.691406 72.8125 125.378906 72.304688 C 125.222656 72.082031 125.140625 71.644531 125.132812 70.988281 L 125.132812 67.078125 L 124.054688 67.167969 L 123.882812 66.488281 C 124.523438 66.210938 125.171875 66.0625 125.835938 66.042969 L 126.410156 66.542969 L 126.410156 70.886719 C 126.4375 71.71875 126.753906 72.132812 127.355469 72.132812 C 127.878906 72.132812 128.550781 71.878906 129.363281 71.378906 L 129.363281 67.078125 L 128.289062 67.167969 L 128.117188 66.488281 C 128.757812 66.210938 129.40625 66.0625 130.066406 66.042969 L 130.640625 66.542969 L 130.640625 71.78125 C 130.640625 71.976562 130.761719 72.070312 131.011719 72.070312 C 131.15625 72.070312 131.378906 72.027344 131.675781 71.941406 Z M 137.929688 66.34375 C 137.964844 67.054688 137.882812 67.835938 137.667969 68.679688 L 136.894531 68.679688 L 136.738281 67.09375 C 135.960938 67.527344 135.308594 68.101562 134.773438 68.8125 L 134.773438 72.070312 C 135.472656 72.121094 135.960938 72.207031 136.25 72.332031 L 136.164062 73.023438 L 132.519531 73.023438 L 132.449219 72.550781 L 133.496094 72.160156 L 133.496094 67.078125 L 132.421875 67.167969 L 132.246094 66.488281 C 132.890625 66.210938 133.539062 66.0625 134.195312 66.042969 L 134.773438 66.542969 L 134.773438 67.859375 L 136.277344 66.242188 C 136.554688 66.125 136.808594 66.070312 137.039062 66.070312 C 137.34375 66.070312 137.640625 66.164062 137.929688 66.34375 Z M 143.335938 69.316406 L 139.652344 69.242188 C 139.652344 70.195312 139.867188 70.917969 140.300781 71.40625 C 140.738281 71.898438 141.304688 72.144531 142 72.144531 C 142.519531 72.144531 143.132812 71.988281 143.835938 71.667969 L 144.054688 72.289062 L 141.816406 73.242188 C 140.765625 73.242188 139.914062 72.914062 139.269531 72.265625 C 138.625 71.617188 138.304688 70.785156 138.304688 69.761719 C 138.304688 68.726562 138.621094 67.835938 139.253906 67.09375 C 139.890625 66.355469 140.667969 65.984375 141.585938 65.984375 C 142.085938 65.984375 142.53125 66.09375 142.925781 66.316406 C 143.324219 66.535156 143.628906 66.839844 143.84375 67.222656 C 144.0625 67.609375 144.164062 68.035156 144.15625 68.507812 Z M 140.871094 66.863281 C 140.324219 67.152344 139.957031 67.691406 139.761719 68.480469 L 142.90625 68.335938 C 142.8125 67.871094 142.574219 67.5 142.191406 67.222656 C 141.816406 66.945312 141.375 66.824219 140.871094 66.863281 Z M 150.449219 64.757812 C 149.980469 64.554688 149.613281 64.269531 149.34375 63.890625 C 149.59375 63.371094 149.886719 63.003906 150.21875 62.796875 C 150.652344 62.96875 151.007812 63.257812 151.296875 63.660156 C 151.144531 64.101562 150.859375 64.46875 150.449219 64.757812 Z M 151.023438 66.542969 L 151.023438 72.097656 C 151.5 72.160156 151.847656 72.234375 152.054688 72.332031 L 151.972656 73.023438 L 148.726562 73.023438 L 148.652344 72.550781 C 148.886719 72.433594 149.246094 72.296875 149.746094 72.144531 L 149.746094 67.078125 L 148.671875 67.167969 L 148.496094 66.488281 C 149.140625 66.210938 149.789062 66.0625 150.449219 66.042969 Z M 154.109375 67.6875 C 154.109375 67.992188 154.234375 68.238281 154.480469 68.421875 C 154.730469 68.605469 155.109375 68.8125 155.628906 69.042969 L 156.472656 69.433594 C 157.296875 69.863281 157.710938 70.460938 157.710938 71.222656 C 157.710938 71.835938 157.476562 72.335938 157.019531 72.726562 C 156.558594 73.117188 155.96875 73.3125 155.238281 73.3125 C 154.445312 73.3125 153.597656 73.066406 152.699219 72.5625 L 153.234375 71.292969 C 154.132812 71.910156 155.078125 72.285156 156.074219 72.417969 C 156.328125 72.1875 156.457031 71.910156 156.457031 71.582031 C 156.457031 71.253906 156.34375 70.988281 156.101562 70.789062 C 155.859375 70.585938 155.390625 70.328125 154.691406 70.015625 C 153.984375 69.703125 153.511719 69.398438 153.269531 69.105469 C 153.027344 68.8125 152.902344 68.460938 152.902344 68.042969 C 152.902344 67.441406 153.15625 66.945312 153.671875 66.5625 C 154.179688 66.175781 154.835938 65.984375 155.628906 65.984375 C 156.296875 65.984375 156.910156 66.125 157.464844 66.414062 C 157.492188 67.121094 157.414062 67.738281 157.21875 68.277344 L 156.445312 68.277344 L 156.347656 67.167969 C 155.867188 66.953125 155.363281 66.851562 154.839844 66.851562 L 154.566406 66.863281 C 154.261719 67.054688 154.109375 67.328125 154.109375 67.6875 Z M 169.328125 68.597656 L 169.328125 72.097656 C 169.816406 72.167969 170.148438 72.242188 170.335938 72.332031 L 170.246094 73.023438 L 167.304688 73.023438 L 167.234375 72.550781 L 168.050781 72.230469 L 168.050781 68.753906 C 168.050781 67.714844 167.742188 67.195312 167.132812 67.195312 C 166.582031 67.195312 165.832031 67.558594 164.894531 68.277344 L 164.894531 72.117188 C 165.296875 72.164062 165.605469 72.234375 165.828125 72.332031 L 165.742188 73.023438 L 162.671875 73.023438 L 162.597656 72.550781 L 163.617188 72.171875 L 163.617188 67.078125 L 162.542969 67.167969 L 162.371094 66.488281 C 163.011719 66.210938 163.660156 66.0625 164.324219 66.042969 L 164.894531 66.542969 L 164.894531 67.496094 C 166.328125 66.527344 167.304688 66.042969 167.824219 66.042969 C 168.101562 66.089844 168.378906 66.230469 168.65625 66.464844 C 168.941406 66.703125 169.125 66.945312 169.203125 67.195312 C 169.289062 67.445312 169.328125 67.914062 169.328125 68.597656 Z M 170.6875 69.617188 C 170.6875 68.542969 170.992188 67.667969 171.601562 66.996094 C 172.207031 66.320312 172.984375 65.984375 173.933594 65.984375 C 174.867188 65.984375 175.628906 66.332031 176.210938 67.023438 C 176.796875 67.714844 177.089844 68.609375 177.089844 69.707031 C 177.089844 70.792969 176.800781 71.664062 176.226562 72.324219 C 175.652344 72.984375 174.898438 73.3125 173.960938 73.3125 C 173.011719 73.3125 172.230469 72.96875 171.613281 72.273438 C 170.996094 71.582031 170.6875 70.695312 170.6875 69.617188 Z M 174.804688 72.273438 C 175.425781 71.863281 175.738281 71.058594 175.738281 69.863281 C 175.738281 69.011719 175.578125 68.296875 175.261719 67.730469 C 174.949219 67.160156 174.464844 66.878906 173.816406 66.878906 C 173.386719 66.878906 173.019531 66.984375 172.726562 67.195312 C 172.277344 67.734375 172.050781 68.488281 172.050781 69.460938 C 172.050781 70.289062 172.226562 70.980469 172.578125 71.539062 C 172.925781 72.09375 173.4375 72.375 174.117188 72.375 C 174.335938 72.375 174.566406 72.339844 174.804688 72.273438 Z M 187.804688 66.269531 L 187.886719 66.789062 L 186.984375 67.140625 L 185.265625 72.9375 C 184.949219 73.050781 184.570312 73.109375 184.128906 73.109375 C 183.890625 73.109375 183.6875 73.09375 183.527344 73.050781 L 182.4375 69.851562 L 182.320312 70.488281 L 181.320312 72.9375 C 181.042969 73.042969 180.691406 73.097656 180.273438 73.097656 L 179.65625 73.050781 L 177.816406 67.023438 L 177.015625 66.980469 L 177.027344 66.269531 L 179.898438 66.269531 L 179.984375 66.789062 L 179.210938 67.09375 L 180.210938 70.558594 L 180.546875 72.171875 L 180.65625 72.171875 L 181.992188 68.566406 L 181.363281 66.707031 L 182.621094 66.371094 L 183.984375 70.558594 L 184.257812 72.171875 L 184.359375 72.171875 L 185.765625 67.035156 L 184.875 66.980469 L 184.890625 66.269531 Z M 189.46875 69.996094 L 189.007812 63.851562 C 189.199219 63.65625 189.503906 63.558594 189.925781 63.558594 C 190.375 63.558594 190.660156 63.664062 190.773438 63.878906 L 190.285156 69.996094 Z M 189.8125 71.234375 C 190.433594 71.46875 190.785156 71.8125 190.859375 72.273438 C 190.714844 72.753906 190.421875 73.101562 189.980469 73.3125 C 189.457031 73.207031 189.09375 72.910156 188.894531 72.433594 C 188.980469 71.902344 189.285156 71.503906 189.8125 71.234375 Z M 189.8125 71.234375 "/>
</g>
<g clip-path="url(#clip3)" clip-rule="nonzero">
<path style="fill-rule:nonzero;fill:rgb(27.843137%,10.196078%,62.745098%);fill-opacity:1;stroke-width:1;stroke-linecap:butt;stroke-linejoin:miter;stroke:rgb(100%,100%,100%);stroke-opacity:1;stroke-miterlimit:4;" d="M -0.000825681 108.139853 C -0.000825681 48.412247 48.418844 0.000000000000004977 108.145125 0.000000000000004977 C 167.871407 0.000000000000004977 216.291076 48.412247 216.291076 108.139853 C 216.291076 167.87556 167.871407 216.287807 108.145125 216.287807 C 48.418844 216.287807 -0.000825681 167.87556 -0.000825681 108.139853 Z M 108.145125 211.565648 C 165.264695 211.565648 211.574558 165.267438 211.574558 108.139853 C 211.574558 51.028468 165.264695 4.722158 108.145125 4.722158 C 51.025556 4.722158 4.715693 51.028468 4.715693 108.139853 C 4.715693 165.267438 51.025556 211.565648 108.145125 211.565648 Z M 108.145125 211.565648 " transform="matrix(0.479531,0,0,0.482268,202.711333,-0.0000000000000024)"/>
</g>
<g clip-path="url(#clip4)" clip-rule="nonzero">
<path style=" stroke:none;fill-rule:nonzero;fill:rgb(27.843137%,10.196078%,62.745098%);fill-opacity:1;" d="M 279.941406 65.464844 C 280.019531 65.308594 280.066406 65.132812 280.066406 64.949219 L 280.066406 36.898438 C 280.066406 36.238281 279.53125 35.703125 278.871094 35.703125 L 230.265625 35.703125 C 229.609375 35.703125 229.070312 36.238281 229.070312 36.898438 L 229.070312 64.949219 C 229.070312 65.136719 229.113281 65.308594 229.195312 65.464844 L 223.394531 65.464844 L 223.394531 67.410156 C 223.394531 68.070312 223.929688 68.609375 224.589844 68.609375 L 284.546875 68.609375 C 285.207031 68.609375 285.746094 68.074219 285.746094 67.410156 L 285.746094 65.464844 Z M 254.570312 36.347656 C 254.828125 36.347656 255.042969 36.5625 255.042969 36.824219 C 255.042969 37.085938 254.828125 37.296875 254.570312 37.296875 C 254.308594 37.296875 254.097656 37.085938 254.097656 36.824219 C 254.097656 36.5625 254.308594 36.347656 254.570312 36.347656 Z M 231.117188 38.019531 L 278.023438 38.019531 L 278.023438 63.496094 L 231.117188 63.496094 Z M 258.023438 67.039062 C 258.023438 67.300781 257.808594 67.515625 257.550781 67.515625 L 251.589844 67.515625 C 251.328125 67.515625 251.117188 67.300781 251.117188 67.039062 C 251.117188 66.777344 251.328125 66.566406 251.589844 66.566406 L 257.550781 66.566406 C 257.808594 66.566406 258.023438 66.777344 258.023438 67.039062 Z M 258.023438 67.039062 "/>
</g>
<path style=" stroke:none;fill-rule:nonzero;fill:rgb(27.843137%,10.196078%,62.745098%);fill-opacity:1;" d="M 241.917969 52.757812 L 250.546875 56.785156 L 250.546875 54.871094 L 244.023438 51.996094 L 244.023438 51.960938 L 250.546875 49.082031 L 250.546875 47.164062 L 241.917969 51.199219 Z M 241.917969 52.757812 "/>
<path style=" stroke:none;fill-rule:nonzero;fill:rgb(27.843137%,10.196078%,62.745098%);fill-opacity:1;" d="M 251.882812 57.511719 L 253.699219 57.511719 L 257.546875 44.402344 L 255.726562 44.402344 Z M 251.882812 57.511719 "/>
<path style=" stroke:none;fill-rule:nonzero;fill:rgb(27.843137%,10.196078%,62.745098%);fill-opacity:1;" d="M 258.585938 49.082031 L 265.261719 51.960938 L 265.261719 51.996094 L 258.585938 54.871094 L 258.585938 56.785156 L 267.21875 52.808594 L 267.21875 51.148438 L 258.585938 47.164062 Z M 258.585938 49.082031 "/>
</g>
</svg>
